HIERARCHY
ROOT Hips
{
	OFFSET 0.000000 0.000000 0.000000 
	CHANNELS 6 Xposition Yposition Zposition Zrotation Yrotation Xrotation
	JOINT LeftUpLeg
	{
		OFFSET 1.363060 -1.794630 0.839290 
		CHANNELS 3 Zrotation Yrotation Xrotation
		JOINT LeftLeg
		{
			OFFSET 2.448110 -6.726130 0.000000 
			CHANNELS 3 Zrotation Yrotation Xrotation
			JOINT LeftFoot
			{
				OFFSET 2.562200 -7.039590 0.000000 
				CHANNELS 3 Zrotation Yrotation Xrotation
				JOINT LeftToeBase
				{
					OFFSET 0.157640 -0.433110 2.322550 
					CHANNELS 3 Zrotation Yrotation Xrotation
					End Site
					{
						OFFSET 0.000000 0.000000 0.000000 
					}
				}
			}
		}
	}
	JOINT RightUpLeg
	{
		OFFSET -1.305520 -1.794630 0.839290 
		CHANNELS 3 Zrotation Yrotation Xrotation
		JOINT RightLeg
		{
			OFFSET -2.542530 -6.985550 0.000000 
			CHANNELS 3 Zrotation Yrotation Xrotation
			JOINT RightFoot
			{
				OFFSET -2.568260 -7.056230 0.000000 
				CHANNELS 3 Zrotation Yrotation Xrotation
				JOINT RightToeBase
				{
					OFFSET -0.164730 -0.452590 2.363150 
					CHANNELS 3 Zrotation Yrotation Xrotation
					End Site
					{
						OFFSET 0.000000 0.000000 0.000000 
					}
				}
			}
		}
	}
	JOINT Spine
	{
		OFFSET 0.028270 2.035590 -0.193380 
		CHANNELS 3 Zrotation Yrotation Xrotation
		JOINT Spine1
		{
			OFFSET 0.056720 2.048850 -0.042750 
			CHANNELS 3 Zrotation Yrotation Xrotation
			JOINT Neck1
			{
				OFFSET -0.054170 1.746240 0.172020 
				CHANNELS 3 Zrotation Yrotation Xrotation
				JOINT Head
				{
					OFFSET 0.104070 1.761360 -0.123970 
					CHANNELS 3 Zrotation Yrotation Xrotation
					End Site
					{
						OFFSET 0.000000 0.000000 0.000000 
					}
				}
			}
			JOINT LeftArm
			{
				OFFSET 3.362410 1.200890 -0.311210 
				CHANNELS 3 Zrotation Yrotation Xrotation
				JOINT LeftForeArm
				{
					OFFSET 4.983000 -0.000000 -0.000000 
					CHANNELS 3 Zrotation Yrotation Xrotation
					JOINT LeftHand
					{
						OFFSET 3.483560 -0.000000 -0.000000 
						CHANNELS 3 Zrotation Yrotation Xrotation
						JOINT LeftHandIndex1
						{
							OFFSET 0.715260 -0.000000 -0.000000 
							CHANNELS 3 Zrotation Yrotation Xrotation
							End Site
							{
								OFFSET 0.000000 0.000000 0.000000 
							}
						}
					}
				}
			}
			JOINT RightArm
			{
				OFFSET -3.136600 1.374050 -0.404650 
				CHANNELS 3 Zrotation Yrotation Xrotation
				JOINT RightForeArm
				{
					OFFSET -5.241900 -0.000000 -0.000000 
					CHANNELS 3 Zrotation Yrotation Xrotation
					JOINT RightHand
					{
						OFFSET -3.444170 -0.000000 -0.000000 
						CHANNELS 3 Zrotation Yrotation Xrotation
						JOINT RightHandIndex1
						{
							OFFSET -0.622530 -0.000000 -0.000000 
							CHANNELS 3 Zrotation Yrotation Xrotation
							End Site
							{
								OFFSET 0.000000 0.000000 0.000000 
							}
						}
					}
				}
			}
		}
	}
}
MOTION
Frames: 13
Frame Time: 0.041667
0.369757 17.144134 -3.271607 -2.430803 0.707701 -0.367369 -13.190821 0.180287 -23.189191 3.294537 12.638748 36.694569 -0.460315 4.248846 -6.148681 0.025500 -1.030000 -2.831300 20.444934 2.641027 -21.677190 -4.193116 -13.313031 39.545136 -0.833915 2.564116 -9.144786 -0.190300 -2.809100 7.747800 1.355913 -0.027373 -1.517840 1.118242 -0.386685 6.096434 3.705703 -1.620733 34.602784 0.852000 -0.136800 12.987200 -98.827761 -18.561061 15.765236 5.377059 -12.421843 -0.458959 -0.194809 -0.600950 -2.260354 -7.125000 0.000000 0.000000 98.279662 16.538192 15.476594 -10.001567 21.058192 -2.090539 0.842758 0.698300 32.088041 7.125000 0.000000 0.000000 
0.377150 17.203076 -3.257631 -2.369841 0.722091 0.133770 -13.269873 0.279183 -23.133924 3.039808 12.331585 35.624162 -0.442858 4.107465 -5.752881 0.022600 -0.970000 -2.666400 20.329301 2.667153 -21.617106 -3.946547 -13.035178 38.531561 -0.799503 2.461479 -8.744810 -0.209600 -2.947800 8.133400 1.358722 -0.120543 -1.561997 1.097790 -0.428668 6.060695 3.672285 -1.556773 34.454025 0.839100 -0.113100 12.924500 -98.652749 -18.229508 14.543489 5.147162 -11.995961 -0.405103 -0.207905 -0.597324 -1.085022 -7.125000 0.000000 0.000000 98.183810 16.378742 15.908243 -10.144566 21.298048 -2.149249 0.837299 0.700873 31.704973 7.125000 0.000000 0.000000 
0.384341 17.256347 -3.244060 -2.295226 0.743242 0.602830 -13.366194 0.403413 -23.092022 2.805713 12.039092 34.621395 -0.418135 3.938773 -5.373043 0.019900 -0.910900 -2.503700 20.197563 2.683029 -21.565891 -3.724921 -12.776271 37.602561 -0.771608 2.385184 -8.381418 -0.231800 -3.098700 8.553700 1.360683 -0.209380 -1.601156 1.086538 -0.470024 6.029750 3.639958 -1.503735 34.299440 0.823500 -0.093300 12.862000 -98.485454 -17.921286 13.396773 4.938293 -11.607114 -0.359474 -0.218122 -0.593921 0.000294 -7.125000 0.000000 0.000000 98.071568 16.223260 16.289543 -10.283341 21.529169 -2.206353 0.832954 0.703479 31.336606 7.125000 0.000000 0.000000 
0.391531 17.304352 -3.230894 -2.199460 0.761751 1.036387 -13.489342 0.555546 -23.060711 2.591498 11.762158 33.686086 -0.388639 3.752392 -5.003482 0.017300 -0.849400 -2.334500 20.041882 2.694772 -21.522085 -3.527127 -12.537472 36.758135 -0.748851 2.331002 -8.045027 -0.254500 -3.245700 8.963500 1.361465 -0.290702 -1.634490 1.089706 -0.509377 6.002910 3.616180 -1.457954 34.134277 0.812200 -0.077200 12.792900 -98.327783 -17.636422 12.357424 4.751079 -11.257563 -0.321147 -0.225987 -0.590666 0.961620 -7.125000 0.000000 0.000000 97.942392 16.071398 16.612801 -10.417506 21.750742 -2.261805 0.829578 0.706191 30.986290 7.125000 0.000000 0.000000 
0.399127 17.347293 -3.217930 -2.092953 0.771392 1.428870 -13.630329 0.738569 -23.034761 2.397360 11.502499 32.821340 -0.356562 3.559021 -4.646106 0.014900 -0.788700 -2.167500 19.875141 2.702777 -21.479114 -3.351078 -12.318484 35.993600 -0.729817 2.291087 -7.731085 -0.275200 -3.374100 9.322100 1.361174 -0.362741 -1.660748 1.099028 -0.545426 5.983630 3.595192 -1.417017 33.974802 0.801600 -0.062600 12.730700 -98.175805 -17.377688 11.462562 4.588218 -10.953830 -0.290509 -0.230981 -0.588004 1.776966 -7.125000 0.000000 0.000000 97.800498 15.929190 16.876241 -10.543878 21.958474 -2.314301 0.826977 0.708993 30.652725 7.125000 0.000000 0.000000 
0.407027 17.385170 -3.205372 -1.982922 0.768095 1.778668 -13.781210 0.943655 -23.011955 2.223127 11.261929 32.030060 -0.325766 3.376775 -4.305708 0.012900 -0.732200 -2.012200 19.704936 2.712296 -21.432606 -3.194833 -12.118725 35.304201 -0.713561 2.262232 -7.434526 -0.293200 -3.481700 9.622900 1.360192 -0.423501 -1.679681 1.111228 -0.576337 5.971367 3.580348 -1.380560 33.818392 0.794600 -0.050200 12.669700 -98.031458 -17.143056 10.723857 4.449999 -10.696463 -0.266600 -0.233521 -0.585883 2.463893 -7.125000 0.000000 0.000000 97.649768 15.803925 17.066367 -10.655674 22.141664 -2.361131 0.825013 0.711907 30.356522 7.125000 0.000000 0.000000 
0.415331 17.418388 -3.193219 -1.878516 0.749843 2.089383 -13.930694 1.160267 -22.994728 2.069061 11.042529 31.316249 -0.298422 3.215973 -3.988123 0.011100 -0.680600 -1.870400 19.541437 2.734935 -21.382589 -3.056454 -11.937721 34.685284 -0.698569 2.234806 -7.156136 -0.307900 -3.567200 9.862100 1.359014 -0.471622 -1.691564 1.122294 -0.601276 5.967126 3.564922 -1.347876 33.679529 0.787500 -0.039200 12.622700 -97.893392 -16.925587 10.181649 4.341221 -10.496125 -0.249929 -0.233409 -0.584644 3.020688 -7.125000 0.000000 0.000000 97.493352 15.700067 17.181293 -10.749801 22.295946 -2.401126 0.823439 0.714925 30.098852 7.125000 0.000000 0.000000 
0.423838 17.446948 -3.181471 -1.782046 0.712271 2.365823 -14.075271 1.380469 -22.985781 1.934741 10.845862 30.682256 -0.276223 3.085477 -3.697150 0.009600 -0.632300 -1.737500 19.387349 2.777725 -21.330268 -2.935025 -11.775753 34.135093 -0.684996 2.207488 -6.903297 -0.320000 -3.636400 10.055800 1.358081 -0.505854 -1.696695 1.133859 -0.619484 5.972951 3.548545 -1.317932 33.558121 0.780800 -0.029600 12.587800 -97.761998 -16.729965 9.821956 4.256812 -10.342980 -0.238876 -0.231846 -0.583806 3.497772 -7.125000 0.000000 0.000000 97.333627 15.627087 17.214309 -10.819514 22.411210 -2.431404 0.822394 0.717834 29.900893 7.125000 0.000000 0.000000 
0.432649 17.471355 -3.170432 -1.691816 0.660187 2.610842 -14.215764 1.590233 -22.983701 1.819298 10.673039 30.128628 -0.259068 2.982841 -3.430078 0.007800 -0.569000 -1.563600 19.240621 2.837451 -21.279585 -2.829633 -11.633063 33.653023 -0.672273 2.176305 -6.679560 -0.329300 -3.688000 10.200600 1.356518 -0.527262 -1.696775 1.142290 -0.631179 5.982563 3.533699 -1.291188 33.454133 0.775900 -0.021500 12.562600 -97.636224 -16.537212 9.672363 4.204488 -10.252194 -0.234321 -0.228887 -0.583584 3.890961 -7.125000 0.000000 0.000000 97.174697 15.584381 17.164132 -10.860515 22.480888 -2.450035 0.821693 0.720493 29.763876 7.125000 0.000000 0.000000 
0.441258 17.491813 -3.160203 -1.608820 0.593884 2.831394 -14.349532 1.787552 -22.996711 1.721309 10.523467 29.651578 -0.245922 2.902381 -3.177664 0.005700 -0.488700 -1.342700 19.104139 2.923755 -21.236692 -2.739782 -11.510245 33.238591 -0.659119 2.131090 -6.491486 -0.334900 -3.719300 10.288400 1.355302 -0.536434 -1.692708 1.153288 -0.636998 5.995627 3.517597 -1.265832 33.373830 0.771700 -0.014300 12.553600 -97.518226 -16.355031 9.706960 4.175982 -10.207582 -0.234097 -0.226253 -0.583281 4.237220 -7.125000 0.000000 0.000000 97.013831 15.572934 17.036916 -10.873669 22.506397 -2.457386 0.821215 0.723224 29.703135 7.125000 0.000000 0.000000 
0.449562 17.508625 -3.150886 -1.532828 0.517675 3.029911 -14.476965 1.968976 -23.023047 1.638997 10.396148 29.246765 -0.234841 2.833628 -2.937727 0.003500 -0.382600 -1.051200 18.977704 3.030711 -21.203397 -2.664594 -11.406904 32.889434 -0.646077 2.076311 -6.340269 -0.338900 -3.740800 10.348500 1.354561 -0.535043 -1.685431 1.168056 -0.637893 6.009844 3.502890 -1.242792 33.314595 0.769900 -0.008500 12.557700 -97.410116 -16.184174 9.899280 4.172400 -10.211854 -0.238969 -0.222531 -0.583359 4.571987 -7.125000 0.000000 0.000000 96.850620 15.594036 16.831248 -10.856532 22.483727 -2.452290 0.820855 0.726154 29.733937 7.125000 0.000000 0.000000 
0.457361 17.522398 -3.142278 -1.461982 0.435686 3.206982 -14.598301 2.129970 -23.058724 1.570632 10.289371 28.907543 -0.225304 2.774092 -2.709003 0.001500 -0.253100 -0.695300 18.859504 3.155355 -21.178414 -2.602776 -11.321955 32.601347 -0.632584 2.010229 -6.220983 -0.341100 -3.753100 10.383200 1.354609 -0.525365 -1.675514 1.189149 -0.635201 6.022305 3.483236 -1.222451 33.269287 0.766400 -0.004400 12.569800 -97.312260 -16.030028 10.219868 4.183918 -10.245062 -0.246054 -0.219447 -0.583233 4.900439 -7.125000 0.000000 0.000000 96.686207 15.647850 16.542931 -10.806872 22.409191 -2.433822 0.820946 0.728895 29.872406 7.125000 0.000000 0.000000 
0.464754 17.533538 -3.133973 -1.398439 0.353393 3.365161 -14.709839 2.267274 -23.100107 1.514309 10.201244 28.627373 -0.216691 2.720155 -2.490388 0.000300 -0.103900 -0.285400 18.752463 3.290173 -21.159614 -2.552458 -11.253147 32.366476 -0.618731 1.934316 -6.129080 -0.342500 -3.760500 10.403800 1.356586 -0.512101 -1.661227 1.219110 -0.631946 6.044565 3.459356 -1.199631 33.242209 0.762100 0.000500 12.594400 -97.227561 -15.903661 10.624910 4.206252 -10.299582 -0.254979 -0.216446 -0.583170 5.245148 -7.125000 0.000000 0.000000 96.517528 15.744233 16.179994 -10.720002 22.275571 -2.400013 0.821977 0.730843 30.114309 7.125000 0.000000 0.000000 
